/* XPM */
static char *a4fc3670aea5482ca853e1eb6febd9b2[] = {
/* columns rows colors chars-per-pixel */
"32 32 27 1 ",
"  c #3A6DDF",
". c #3A6EE0",
"X c #3B6EE0",
"o c #3C6FE2",
"O c #3D70E3",
"+ c #3D70E4",
"@ c #3D71E4",
"# c #3E72E6",
"$ c #3F73E7",
"% c #3F73E8",
"& c #4276EC",
"* c #4277EC",
"= c #4479EF",
"- c #457BF2",
"; c #477CF4",
": c #477DF4",
"> c #477DF5",
", c #497FF7",
"< c #4A80F8",
"1 c #4A80F9",
"2 c #4B81FA",
"3 c #4B82FA",
"4 c #4C83FC",
"5 c #4D83FD",
"6 c #4D84FE",
"7 c #4E85FF",
"8 c None",
/* pixels */
"88888888888888888888888888888888",
"88888888888888877888888888888888",
"88888888888888877888888888888888",
"88888888888888777788888888888888",
"88888888888887777778888888888888",
"88888888888887777778888888888888",
"88888888888877777777888888888888",
"88888888888877777777888888888888",
"88888888888777777777788888888888",
"88888888888777777777788888888888",
"88888888887777777777778888888888",
"88888888877777777777777888888888",
"88888888877777777777777888888888",
"88888888777777777777777788888888",
"88888888777777788777777788888888",
"88888887777777788777777778888888",
"88888877777777888877777777888888",
"88888877777777888877777777888888",
"88888777777778888887777777788888",
"88888777777788888888777777788888",
"88887777777788888888777777778888",
"88887777777888888888877777778888",
"88877777777888888888877777777888",
"88777777778888888888887777777788",
"88777777778888888888887777777788",
"887777771&$$$$$--$$$$O&477777788",
"88777777&    $>77,X.   &77777788",
"88877771   X=477777=    17777888",
"8887777$. &1777777771*  $7777888",
"888877> X>477777777777-X ;778888",
"888877O*4777777777777774*O778888",
"88888><777777777777777777<>88888"
};
