/* XPM */
static char *_67f73cc7b9e4ce0edb98206ce6c2c95[] = {
/* columns rows colors chars-per-pixel */
"16 16 17 1 ",
"  c #3A6DDF",
". c #3C6FE2",
"X c #3E71E5",
"o c #3E72E5",
"O c #4176EB",
"+ c #4277EC",
"@ c #4378EE",
"# c #4479EF",
"$ c #467BF2",
"% c #497FF7",
"& c #4A80F8",
"* c #4B82FB",
"= c #4D83FD",
"- c #4D84FD",
"; c #4E85FE",
": c #4E85FF",
"> c None",
/* pixels */
">>>>>>>>>>>>>>>>",
">>>>>>>::>>>>>>>",
">>>>>>>::>>>>>>>",
">>>>>>::::>>>>>>",
">>>>>::::::>>>>>",
">>>>>::::::>>>>>",
">>>>::::::::>>>>",
">>>>::::::::>>>>",
">>>::::>>::::>>>",
">>>:::>>>>:::>>>",
">>::::>>>>::::>>",
">::::>>>>>>::::>",
">:::%OO>#OO%:::>",
">:::. O::O .:::>",
">>:+X&::::&X@:>>",
">>*$::::::::$*>>"
};
