/* XPM */
static char *argoneum64[] = {
/* columns rows colors chars-per-pixel */
"64 64 114 2 ",
"   c None",
".  c #2B8E55",
"X  c #2C8E56",
"o  c #2D8F57",
"O  c #2E8F57",
"+  c #2F8F57",
"@  c #309058",
"#  c #319058",
"$  c #329159",
"%  c #33915A",
"&  c #34915A",
"*  c #34925A",
"=  c #36935B",
"-  c #37935B",
";  c #37935C",
":  c #39945D",
">  c #3A945D",
",  c #3B955E",
"<  c #3C955E",
"1  c #3C955F",
"2  c #3E9660",
"3  c #3F9760",
"4  c #419861",
"5  c #429862",
"6  c #449963",
"7  c #459963",
"8  c #459964",
"9  c #469A64",
"0  c #479A65",
"q  c #499B66",
"w  c #4A9B66",
"e  c #4A9B67",
"r  c #4B9B67",
"t  c #4C9B67",
"y  c #4C9C67",
"u  c #4C9C68",
"i  c #4D9C68",
"p  c #4E9D69",
"a  c #509D69",
"s  c #509D6A",
"d  c #509E6A",
"f  c #519E6A",
"g  c #529F6B",
"h  c #539F6B",
"j  c #539F6C",
"k  c #55A06C",
"l  c #56A16D",
"z  c #57A16D",
"x  c #58A16E",
"c  c #59A16F",
"v  c #59A26F",
"b  c #5BA270",
"n  c #5BA370",
"m  c #5CA371",
"M  c #5DA371",
"N  c #5DA471",
"B  c #5DA472",
"V  c #5EA472",
"C  c #5FA473",
"Z  c #60A574",
"A  c #61A675",
"S  c #63A776",
"D  c #64A877",
"F  c #65A877",
"G  c #66A979",
"H  c #67A979",
"J  c #68A979",
"K  c #68AA7A",
"L  c #69AA7A",
"P  c #6AAA7B",
"I  c #6BAB7C",
"U  c #6BAC7C",
"Y  c #6CAC7D",
"T  c #6DAD7D",
"R  c #6DAD7E",
"E  c #6EAD7E",
"W  c #6EAE7E",
"Q  c #6FAE7E",
"!  c #6FAE7F",
"~  c #71AE7F",
"^  c #71AF7F",
"/  c #71AF80",
"(  c #72AF81",
")  c #73AF81",
"_  c #73B081",
"`  c #73B082",
"'  c #74B082",
"]  c #75B183",
"[  c #76B284",
"{  c #77B284",
"}  c #77B385",
"|  c #78B385",
" . c #79B385",
".. c #79B386",
"X. c #79B486",
"o. c #79B487",
"O. c #7AB487",
"+. c #7BB487",
"@. c #7BB488",
"#. c #7CB588",
"$. c #7DB589",
"%. c #7EB589",
"&. c #7EB68A",
"*. c #7FB68A",
"=. c #7FB78A",
"-. c #7FB78B",
";. c #80B78B",
":. c #80B78C",
">. c #81B88C",
",. c #82B88C",
"<. c #82B88D",
"1. c #82B98D",
"2. c #83B98D",
"3. c #84B98E",
/* pixels */
"                                                              3.3.                                                              ",
"                                                              3.3.                                                              ",
"                                                            3.3.3.3.                                                            ",
"                                                            3.3.3.3.                                                            ",
"                                                          3.3.3.3.3.3.                                                          ",
"                                                        3.3.3.3.3.3.3.3.                                                        ",
"                                                        3.3.3.3.3.3.3.3.                                                        ",
"                                                      2.3.2.3.3.3.3.2.3.2.                                                      ",
"                                                    2.2.2.2.2.2.2.2.2.2.2.2.                                                    ",
"                                                    2.2.2.2.2.2.2.2.2.2.2.2.                                                    ",
"                                                  >.<.,.<.<.<.<.<.<.<.<.,.<.>.                                                  ",
"                                                  >.>.>.>.>.>.>.>.>.>.>.>.>.>.                                                  ",
"                                                >.>.>.>.>.>.>.>.>.>.>.>.>.>.>.                                                  ",
"                                              :.:.:.:.:.:.:.:.:.:.:.:.:.:.:.:.                                                  ",
"                                              ;.;.;.;.;.;.;.;.;.;.;.;.;.;.;.                                                    ",
"                                            &.*.*.*.*.*.*.*.*.*.*.*.*.*.*.*.                                                    ",
"                                          &.&.&.&.&.&.&.&.&.&.&.&.&.&.&.&.                                                      ",
"                                          $.$.$.$.$.$.$.$.$.$.$.$.$.$.$.$.                                                      ",
"                                        $.$.$.$.$.$.$.$.$.$.$.$.$.$.$.$.              3.                                        ",
"                                        #.#.#.#.#.#.#.#.#.#.#.#.#.#.#.#.            3.3.3.                                      ",
"                                      +.@.+.@.@.@.@.@.@.@.@.@.@.@.+.@.            3.3.3.3.3.                                    ",
"                                    O.O.O.O.O.O.O.O.O.O.O.O.O.O.O.O.O.            3.3.3.3.3.                                    ",
"                                    ..X.X.X.X.X.X.X.X.X.X.X.X.X...X.            3.3.3.3.3.3.3.                                  ",
"                                  | ................................          2.2.2.2.2.2.2.2.2.                                ",
"                                } } } } } } } } } } } } } } } } }             <.1.<.1.1.1.<.1.<.                                ",
"                                [ [ [ [ [ [ [ [ [ [ [ [ [ [ [ [ [           >.>.>.>.>.>.>.>.>.>.>.                              ",
"                              ] ] ] ] ] ] ] ] ] ] ] ] ] ] ] ] ]             >.>.>.>.>.>.>.>.>.>.>.>.                            ",
"                            ' ' ' ' ' ' ' ' ' ' ' ' ' ' ' ' ' '           ;.:.:.:.:.:.:.:.:.:.:.:.;.                            ",
"                            ( ) ) ) ) ) ) ) ) ) ) ) ) ) ) ) _           *.=.*.=.=.=.=.=.=.=.=.=.*.=.*.                          ",
"                          / / / / / / / / / / / / / / / / / /           &.&.&.&.&.&.&.&.&.&.&.&.&.&.&.                          ",
"                          ~ ^ ^ ^ ^ ^ ^ ^ ^ ^ ^ ^ ^ ^ ^ ^ /           $.$.$.$.$.$.$.$.$.$.$.$.$.$.$.                            ",
"                        Q ! Q ! ! ! ! ! ! ! ! ! ! ! ! ! Q !         #.#.#.#.#.#.#.#.#.#.#.#.#.#.#.#.                            ",
"                      T R R R R R R R R R R R R R R R R R           O.O.O.O.O.O.O.O.O.O.O.O.O.O.O.O.                            ",
"                      Y Y Y Y Y Y Y Y Y Y Y Y Y Y Y Y Y T         X.o.X.X.X.X.X.X.X.X.X.X.X.X.X.O.                              ",
"                    I I I I I I I I I I I I I I I I I I            ........................... ...                              ",
"                  L P P P P P P P P P P P P P P P P P P         { { { { { { { { { { { { { { { {             3.                  ",
"                  K K K K K K K K K K K K K K K K K K         ] ] ] ] ] ] ] ] ] ] ] ] ] ] ] ] ]             3.3.                ",
"                G H H H H H H H H H H H H H H H H H H         ' ' ' ' ' ' ' ' ' ' ' ' ' ' ' ' '           3.3.3.3.              ",
"                F F F F F F F F F F F F F F F F F F         ( ( ( ( ( ( ( ( ( ( ( ( ( ( ( ( (           2.2.2.2.2.              ",
"              S S S S S S S S S S S S S S S S S S D       / / / / / / / / / / / / / / / / / /           ,.,.,.,.,.,.            ",
"            A A A A A A A A A A A A A A A A A A A         W W W W W W W W W W W W W W W W Q           >.>.>.>.>.>.>.>.          ",
"            Z Z Z Z Z Z Z Z Z Z Z Z Z Z Z Z Z Z Z       T T T T T T T T T T T T T T T T T T         -.-.-.-.-.-.-.-.-.          ",
"          C C C C C C C C C C C C C C C C C C C       I I I I I I I I I I I I I I I I I I U         %.&.&.&.&.&.&.&.&.%.        ",
"        M N M M M M M M M M M M M M M M M M M N       L L L L L L L L L L L L L L L L L L         #.#.#.#.#.#.#.#.#.#.#.#.      ",
"        b n b n n n n n n n n n n n n n n n n       H H H H H H H H H H H H H H H H H H H         O.O.O.O.O.O.O.O.O.O.O.O.      ",
"      x c x c c c c c c c c c c c c c c c x v       F F F F F F F F F F F F F F F F F F         | | | | | | | | | | | | | |     ",
"      l l l l l l l l l l l l l l l l l l l z     S S S S S S S S S S S S S S S S S S S       [ [ [ [ [ [ [ [ [ [ [ [ [ [       ",
"      k k k k k k k k k k k k k k k k k k k     Z Z Z Z Z Z Z Z Z Z Z Z Z Z Z Z Z Z Z         ` ' ' ' ' ' ' ' ' ' ' ' ' '       ",
"        h g h h h h h h h h h h h h h h g h     C C C C C C C C C C C C C C C C C C C       / / / / / / / / / / / / / / /       ",
"        f d d d d d d d d d d d d d d d f     m m m m m m m m m m m m m m m m m m m m       E E E E E E E E E E E E E E W       ",
"          p p p p p p p p p p p p p p p p   v v v v v v v v v v v v v v v v v v v v       I U I U U U U U U U U U U I U         ",
"            y r t t t t t t t t t t r y     l l l l l l l l l l l l l l l l l l l l     J K K K K K K K K K K K K K K K         ",
"            q q q q q q q q q q q q q q   h j j j j j j j j j j j j j j j j j j j       D D D D D D D D D D D D D D D F         ",
"              0 0 0 0 0 0 0 0 0 0 0 0     d d d d d d d d d d d d d d d d d d d d     A A A A A A A A A A A A A A A A           ",
"                6 6 6 6 6 6 6 6 6 6 6   u i i i i i i i i i i i i i i i i i i i i   B V V V V V V V V V V V V V V V V           ",
"                5 4 4 4 4 4 4 4 4 4   q q q q q q q q q q q q q q q q q q q q q     v v v v v v v v v v v v v v v v v           ",
"                  3 3 3 3 3 3 3 3 3   9 9 9 9 9 9 9 9 9 9 9 9 9 9 9 9 9 9 9 9 9   k k k k k k k k k k k k k k k k k             ",
"                    1 < 1 1 1 < 1   5 5 5 5 5 5 5 5 5 5 5 5 5 5 5 5 5 5 5 5 5     a s s s s s s s s s s s s s s s s             ",
"                    : : : : : : : 2 3 3 3 3 3 3 3 3 3 3 3 3 3 3 3 3 3 3 3 3 3   w e e e e e e e e e e e e e e e w r             ",
"                      ; = ; - ; : , , , , , , , , , , , , , , , , , , , , , , 6 7 7 7 7 7 7 7 7 7 7 7 7 7 7 7 7 7 8             ",
"                        & % % * ; ; ; ; ; ; ; ; ; ; ; ; ; ; ; ; ; ; ; ; ; ;   3 3 3 3 3 3 3 3 3 3 3 3 3 3 3 3 3 3               ",
"                        # # # $ % % % % % % % % % % % % % % % % % % % % % * : > > > > > > > > > > > > > > > > : >               ",
"                          O + @ @ @ @ @ @ @ @ @ @ @ @ @ @ @ @ @ @ @ @ @ @ $ % % % % % % % % % % % % % % % % % % &               ",
"                            . X X X X X X X X X X X X X X X X X X X X X X o O O O O O O O O O O O O O O O O O O                 "
};
