/* XPM */
static char *argoneum16[] = {
/* columns rows colors chars-per-pixel */
"16 16 52 1 ",
"  c None",
". c #319059",
"X c #329159",
"o c #339159",
"O c #35925B",
"+ c #38945C",
"@ c #38945D",
"# c #3B955E",
"$ c #3E965F",
"% c #409761",
"& c #429862",
"* c #459964",
"= c #479A64",
"- c #4B9C67",
"; c #4D9C68",
": c #4E9D69",
"> c #4F9D69",
", c #509E6A",
"< c #55A06D",
"1 c #57A16E",
"2 c #58A16E",
"3 c #59A26F",
"4 c #5AA270",
"5 c #5CA371",
"6 c #5FA473",
"7 c #5FA573",
"8 c #60A574",
"9 c #63A776",
"0 c #64A777",
"q c #65A878",
"w c #66A978",
"e c #6BAC7C",
"r c #6CAC7C",
"t c #6DAC7D",
"y c #70AF80",
"u c #71AF80",
"i c #73B081",
"p c #73B082",
"a c #75B183",
"s c #76B183",
"d c #77B284",
"f c #79B386",
"g c #7AB486",
"h c #7AB487",
"j c #7DB589",
"k c #7DB689",
"l c #7EB68A",
"z c #80B78B",
"x c #81B88C",
"c c #82B88D",
"v c #83B98D",
"b c #84B98E",
/* pixels */
"                ",
"       bb       ",
"      cccc      ",
"      zzzz      ",
"     jjjj       ",
"    fghgh bb    ",
"    asss xxx    ",
"   yuuuu kkkl   ",
"   rrrr ffff    ",
"  qwwww iiip v  ",
" 67777 rrrr  ll ",
" 1222390000 ddd ",
" ,>>><44445ettt ",
"  **=;::::17778 ",
"   #$%%%%&-;;;  ",
"   .XooooO+++@  "
};
