/* XPM */
static char *argoneum32[] = {
/* columns rows colors chars-per-pixel */
"32 32 74 1 ",
"  c None",
". c #2E8F57",
"X c #2F9057",
"o c #319059",
"O c #329159",
"+ c #339159",
"@ c #35925B",
"# c #38935C",
"$ c #38945D",
"% c #3B955E",
"& c #3C955F",
"* c #3D965F",
"= c #3E9660",
"- c #419761",
"; c #439862",
": c #449963",
"> c #459963",
", c #479A65",
"< c #489A65",
"1 c #4B9B67",
"2 c #4D9C68",
"3 c #509E6A",
"4 c #519E6A",
"5 c #519E6B",
"6 c #529E6B",
"7 c #529F6B",
"8 c #55A06D",
"9 c #56A06D",
"0 c #56A16D",
"q c #57A16E",
"w c #58A16E",
"e c #59A26F",
"r c #5AA26F",
"t c #5BA370",
"y c #5BA371",
"u c #5DA472",
"i c #5EA472",
"p c #61A674",
"a c #61A675",
"s c #62A675",
"d c #63A776",
"f c #64A877",
"g c #66A978",
"h c #67A979",
"j c #68A979",
"k c #69AA7A",
"l c #6AAB7B",
"z c #6DAD7D",
"x c #6EAD7E",
"c c #6FAE7F",
"v c #70AE7F",
"b c #71AF80",
"n c #72AF81",
"m c #74B082",
"M c #74B183",
"N c #75B183",
"B c #77B284",
"V c #77B385",
"C c #78B385",
"Z c #79B386",
"A c #7AB487",
"S c #7CB588",
"D c #7CB589",
"F c #7DB589",
"G c #7EB68A",
"H c #7FB78B",
"J c #80B78B",
"K c #80B78C",
"L c #81B88C",
"P c #82B88D",
"I c #82B98D",
"U c #83B98D",
"Y c #83B98E",
"T c #84B98E",
/* pixels */
"                                ",
"               TT               ",
"              TTTT              ",
"              TTTT              ",
"             UUUUUU             ",
"            LLLLLLLL            ",
"            KLLLLLL             ",
"           HHHHHHHH             ",
"           GGGGGGG              ",
"          SSSSSSSD   T          ",
"         AAAAAAAA    TT         ",
"         ZZZZZZZZ   UYYU        ",
"        BBBBBBBBB  PPPPP        ",
"       mMMMMMMMN   KKKKKK       ",
"       nnnnnnnnn  GGGGGGG       ",
"      vvvvvvvvv  SFFFFFFF       ",
"      zzzzzzzzz  AAAAAAAA       ",
"     lllllllll  VCCCCCCC        ",
"    hhhhhhhhhj mNNNNNNMN   T    ",
"    fffffffff  bbbbbbbb   IUI   ",
"   paaaaaaaaa zxxxxxxxx  JJJJJ  ",
"  uiiiiiiiii  lllllllll  FFFFF  ",
"  errrrrrrrr ggggggggg  ZZZZZZZ ",
" 0989999989 asssssssss  NNNNNNN ",
"  655555556 uuuuuuuuu  cvvvvvv  ",
"   2222222 qwwwwwwwww klllllll  ",
"   <<<<<<<46666666666 dddddddd  ",
"    ;;;;;,1111111111 tytttttt   ",
"     ***=::::::::::>377777777   ",
"     $##%**********-,<,,,,,,<   ",
"      O+@@@@@@@@@@@%&&&&&&&&*   ",
"       ...........Xooooooooo    "
};
