/* XPM */
static char *_0c7c3d6f0384b39e6c7e30d69c86925[] = {
/* columns rows colors chars-per-pixel */
"64 64 45 1 ",
"  c #3A6DDF",
". c #3A6EE0",
"X c #3B6EE0",
"o c #3B6EE1",
"O c #3B6FE1",
"+ c #3C6FE2",
"@ c #3C70E3",
"# c #3D71E4",
"$ c #3E71E5",
"% c #3E72E5",
"& c #3E72E6",
"* c #3F72E6",
"= c #3F73E8",
"- c #3F74E8",
"; c #4074E9",
": c #4075E9",
"> c #4175EA",
", c #4176EB",
"< c #4276EB",
"1 c #4277EC",
"2 c #4378EE",
"3 c #4479EF",
"4 c #447AF0",
"5 c #457AF0",
"6 c #457AF1",
"7 c #467BF2",
"8 c #467CF3",
"9 c #477DF4",
"0 c #487EF5",
"q c #497FF7",
"w c #497FF8",
"e c #4980F8",
"r c #4A80F8",
"t c #4A81F9",
"y c #4B82FA",
"u c #4B82FB",
"i c #4C82FB",
"p c #4C83FC",
"a c #4D83FD",
"s c #4D84FD",
"d c #4D84FE",
"f c #4E84FE",
"g c #4E85FE",
"h c #4E85FF",
"j c None",
/* pixels */
"jjjjjjjjjjjjjjjjjjjjjjjjjjjjjjjjjjjjjjjjjjjjjjjjjjjjjjjjjjjjjjjj",
"jjjjjjjjjjjjjjjjjjjjjjjjjjjjjjjhhjjjjjjjjjjjjjjjjjjjjjjjjjjjjjjj",
"jjjjjjjjjjjjjjjjjjjjjjjjjjjjjjjhhjjjjjjjjjjjjjjjjjjjjjjjjjjjjjjj",
"jjjjjjjjjjjjjjjjjjjjjjjjjjjjjjhhhhjjjjjjjjjjjjjjjjjjjjjjjjjjjjjj",
"jjjjjjjjjjjjjjjjjjjjjjjjjjjjjhhhhhhjjjjjjjjjjjjjjjjjjjjjjjjjjjjj",
"jjjjjjjjjjjjjjjjjjjjjjjjjjjjjhhhhhhjjjjjjjjjjjjjjjjjjjjjjjjjjjjj",
"jjjjjjjjjjjjjjjjjjjjjjjjjjjjhhhhhhhhjjjjjjjjjjjjjjjjjjjjjjjjjjjj",
"jjjjjjjjjjjjjjjjjjjjjjjjjjjjhhhhhhhhjjjjjjjjjjjjjjjjjjjjjjjjjjjj",
"jjjjjjjjjjjjjjjjjjjjjjjjjjjhhhhhhhhhhjjjjjjjjjjjjjjjjjjjjjjjjjjj",
"jjjjjjjjjjjjjjjjjjjjjjjjjjjhhhhhhhhhhjjjjjjjjjjjjjjjjjjjjjjjjjjj",
"jjjjjjjjjjjjjjjjjjjjjjjjjjhhhhhhhhhhhhjjjjjjjjjjjjjjjjjjjjjjjjjj",
"jjjjjjjjjjjjjjjjjjjjjjjjjhhhhhhhhhhhhhhjjjjjjjjjjjjjjjjjjjjjjjjj",
"jjjjjjjjjjjjjjjjjjjjjjjjjhhhhhhhhhhhhhhjjjjjjjjjjjjjjjjjjjjjjjjj",
"jjjjjjjjjjjjjjjjjjjjjjjjhhhhhhhhhhhhhhhhjjjjjjjjjjjjjjjjjjjjjjjj",
"jjjjjjjjjjjjjjjjjjjjjjjjhhhhhhhhhhhhhhhhjjjjjjjjjjjjjjjjjjjjjjjj",
"jjjjjjjjjjjjjjjjjjjjjjjhhhhhhhhhhhhhhhhhhjjjjjjjjjjjjjjjjjjjjjjj",
"jjjjjjjjjjjjjjjjjjjjjjhhhhhhhhhhhhhhhhhhhhjjjjjjjjjjjjjjjjjjjjjj",
"jjjjjjjjjjjjjjjjjjjjjjhhhhhhhhhhhhhhhhhhhhjjjjjjjjjjjjjjjjjjjjjj",
"jjjjjjjjjjjjjjjjjjjjjhhhhhhhhhhhhhhhhhhhhhhjjjjjjjjjjjjjjjjjjjjj",
"jjjjjjjjjjjjjjjjjjjjjhhhhhhhhhhhhhhhhhhhhhhjjjjjjjjjjjjjjjjjjjjj",
"jjjjjjjjjjjjjjjjjjjjhhhhhhhhhhhhhhhhhhhhhhhhjjjjjjjjjjjjjjjjjjjj",
"jjjjjjjjjjjjjjjjjjjjhhhhhhhhhhhhhhhhhhhhhhhhjjjjjjjjjjjjjjjjjjjj",
"jjjjjjjjjjjjjjjjjjjhhhhhhhhhhhhhhhhhhhhhhhhhhjjjjjjjjjjjjjjjjjjj",
"jjjjjjjjjjjjjjjjjjhhhhhhhhhhhhhhhhhhhhhhhhhhhhjjjjjjjjjjjjjjjjjj",
"jjjjjjjjjjjjjjjjjjhhhhhhhhhhhhhhhhhhhhhhhhhhhhjjjjjjjjjjjjjjjjjj",
"jjjjjjjjjjjjjjjjjhhhhhhhhhhhhhhhhhhhhhhhhhhhhhhjjjjjjjjjjjjjjjjj",
"jjjjjjjjjjjjjjjjjhhhhhhhhhhhhhhhhhhhhhhhhhhhhhhjjjjjjjjjjjjjjjjj",
"jjjjjjjjjjjjjjjjhhhhhhhhhhhhhhhhhhhhhhhhhhhhhhhhjjjjjjjjjjjjjjjj",
"jjjjjjjjjjjjjjjjhhhhhhhhhhhhhhhjjhhhhhhhhhhhhhhhjjjjjjjjjjjjjjjj",
"jjjjjjjjjjjjjjjhhhhhhhhhhhhhhhjjjjhhhhhhhhhhhhhhhjjjjjjjjjjjjjjj",
"jjjjjjjjjjjjjjhhhhhhhhhhhhhhhhjjjjhhhhhhhhhhhhhhhhjjjjjjjjjjjjjj",
"jjjjjjjjjjjjjjhhhhhhhhhhhhhhhjjjjjjhhhhhhhhhhhhhhhjjjjjjjjjjjjjj",
"jjjjjjjjjjjjjhhhhhhhhhhhhhhhhjjjjjjhhhhhhhhhhhhhhhhjjjjjjjjjjjjj",
"jjjjjjjjjjjjjhhhhhhhhhhhhhhhjjjjjjjjhhhhhhhhhhhhhhhjjjjjjjjjjjjj",
"jjjjjjjjjjjjhhhhhhhhhhhhhhhjjjjjjjjjjhhhhhhhhhhhhhhhjjjjjjjjjjjj",
"jjjjjjjjjjjjhhhhhhhhhhhhhhhjjjjjjjjjjhhhhhhhhhhhhhhhjjjjjjjjjjjj",
"jjjjjjjjjjjhhhhhhhhhhhhhhhjjjjjjjjjjjjhhhhhhhhhhhhhhhjjjjjjjjjjj",
"jjjjjjjjjjhhhhhhhhhhhhhhhhjjjjjjjjjjjjhhhhhhhhhhhhhhhhjjjjjjjjjj",
"jjjjjjjjjjhhhhhhhhhhhhhhhjjjjjjjjjjjjjjhhhhhhhhhhhhhhhjjjjjjjjjj",
"jjjjjjjjjhhhhhhhhhhhhhhhhjjjjjjjjjjjjjjhhhhhhhhhhhhhhhhjjjjjjjjj",
"jjjjjjjjjhhhhhhhhhhhhhhhjjjjjjjjjjjjjjjjhhhhhhhhhhhhhhhjjjjjjjjj",
"jjjjjjjjhhhhhhhhhhhhhhhjjjjjjjjjjjjjjjjjjhhhhhhhhhhhhhhhjjjjjjjj",
"jjjjjjjhhhhhhhhhhhhhhhhjjjjjjjjjjjjjjjjjjhhhhhhhhhhhhhhhhjjjjjjj",
"jjjjjjjhhhhhhhhhhhhhhhjjjjjjjjjjjjjjjjjjjjhhhhhhhhhhhhhhhjjjjjjj",
"jjjjjjhhhhhhhhhhhhhhhhjjjjjjjjjjjjjjjjjjjjhhhhhhhhhhhhhhhhjjjjjj",
"jjjjjjhhhhhhhhhhhhhhhjjjjjjjjjjjjjjjjjjjjjjhhhhhhhhhhhhhhhjjjjjj",
"jjjjjhhhhhhhhhhhhhhhhjjjjjjjjjjjjjjjjjjjjjjhhhhhhhhhhhhhhhhjjjjj",
"jjjjjhhhhhhhhhhhhhhhjjjjjjjjjjjjjjjjjjjjjjjjhhhhhhhhhhhhhhhjjjjj",
"jjjjhhhhhhhhhhhhhhhjjjjjjjjjjjjjjjjjjjjjjjjjjhhhhhhhhhhhhhhhjjjj",
"jjjhhhhhhhhhhhhhhhhjjjjjjjjjjjjjjjjjjjjjjjjjjhhhhhhhhhhhhhhhhjjj",
"jjjhhhhhhhhhhhhhhh3>>>1<<<<<<<<jj<<<<<><>3>>>7hhhhhhhhhhhhhhhjjj",
"jjjhhhhhhhhhhhhhhq  .         1ai3            8hhhhhhhhhhhhhhjjj",
"jjjjhhhhhhhhhhhhh@          %qhhhhr%          @hhhhhhhhhhhhhjjjj",
"jjjjhhhhhhhhhhhh3         O3hhhhhhhh3          3hhhhhhhhhhhhjjjj",
"jjjjjhhhhhhhhhhi         >ihhhhhhhhhhi;        Oihhhhhhhhhhjjjjj",
"jjjjjjhhhhhhhhh>       Oqhhhhhhhhhhhhhhq@       >hhhhhhhhhjjjjjj",
"jjjjjjhhhhhhhhw       3hhhhhhhhhhhhhhhhhh1 .     qhhhhhhhhjjjjjj",
"jjjjjjjhhhhhhh;     ;ehhhhhhhhhhhhhhhhhhhhe%     %hhhhhhhjjjjjjj",
"jjjjjjjhhhhhh7    O7hhhhhhhhhhhhhhhhhhhhhhhh7.    8hhhhhhjjjjjjj",
"jjjjjjjjhhhhaO   >ihhhhhhhhhhhhhhhhhhhhhhhhhha>.  Ohhhhhjjjjjjjj",
"jjjjjjjjhhhh3  %qhhhhhhhhhhhhhhhhhhhhhhhhhhhhhhr%  2hhhhjjjjjjjj",
"jjjjjjjjjhhe  3hhhhhhhhhhhhhhhhhhhhhhhhhhhhhhhhha3..ehhjjjjjjjjj",
"jjjjjjjjjjh-%ihhhhhhhhhhhhhhhhhhhhhhhhhhhhhhhhhhhhi%>hjjjjjjjjjj",
"jjjjjjjjjjqqhhhhhhhhhhhhhhhhhhhhhhhhhhhhhhhhhhhhhhhh9ejjjjjjjjjj"
};
